<?xml version="1.0" encoding="utf-8"?>
<!-- Generator: Adobe Illustrator 20.0.0, SVG Export Plug-In . SVG Version: 6.00 Build 0)  -->
<svg version="1.1" xmlns="http://www.w3.org/2000/svg" xmlns:xlink="http://www.w3.org/1999/xlink" x="0px" y="0px"
	 viewBox="0 0 4313 3289" style="enable-background:new 0 0 4313 3289;" xml:space="preserve">
<style type="text/css">
	.st0{fill:#F2F2F2;}
	.st1{fill:#B3B3B3;}
	.st2{fill:none;stroke:#000000;stroke-width:50;stroke-linecap:round;stroke-miterlimit:10;}
	.st3{fill:none;stroke:#000000;stroke-width:80;stroke-linecap:round;stroke-miterlimit:10;}
	.st4{fill:#FFFFFF;}
	.st5{font-family:'FiraSans-Hair';}
	.st6{font-size:207.9752px;}
	.st7{font-size:79.9287px;}
	.st8{font-size:92.5171px;}
	.st9{font-size:74.5084px;}
	.st10{fill:#F2F2F2;stroke:#F2F2F2;stroke-miterlimit:10;}
</style>
<g id="Layer_5">
	<rect x="-170.4" y="-92.5" class="st0" width="4643.1" height="3743.3"/>
</g>
<g id="Layer_3">
	<rect x="1671.8" y="1075" class="st1" width="91.8" height="159.1"/>
	<rect x="1825.6" y="1075" class="st1" width="91.8" height="159.1"/>
	<rect x="3040.6" y="1075" class="st1" width="91.8" height="159.1"/>
	<rect x="3194.3" y="1075" class="st1" width="91.8" height="159.1"/>
	
		<rect x="6591.2" y="1614.4" transform="matrix(-1.836970e-16 1 -1 -1.836970e-16 8331.0537 -4943.2041)" class="st1" width="91.8" height="159.1"/>
	
		<rect x="6591.2" y="1768.1" transform="matrix(-1.836970e-16 1 -1 -1.836970e-16 8484.7627 -4789.4946)" class="st1" width="91.8" height="159.1"/>
	
		<rect x="8077.4" y="894.5" transform="matrix(-1.836970e-16 1 -1 -1.836970e-16 9097.4473 -7149.2334)" class="st1" width="91.8" height="159.1"/>
	
		<rect x="8077.4" y="1048.3" transform="matrix(-1.836970e-16 1 -1 -1.836970e-16 9251.1562 -6995.5239)" class="st1" width="91.8" height="159.1"/>
</g>
<g id="Layer_2">
	<circle class="st2" cx="386.2" cy="1157.1" r="215"/>
	<circle class="st2" cx="386.2" cy="1859.5" r="215"/>
	<circle class="st3" cx="412.6" cy="2658.8" r="226.5"/>
	<circle class="st2" cx="1778.4" cy="1859.5" r="215"/>
	<circle class="st2" cx="1082.4" cy="1157.1" r="215"/>
	<circle class="st2" cx="1082.4" cy="1856.4" r="216.3"/>
	<circle class="st2" cx="2480.4" cy="1157.1" r="215"/>
	<circle class="st2" cx="3776.9" cy="328.9" r="230.2"/>
	<circle class="st2" cx="3166.4" cy="1157.1" r="215"/>
	<circle class="st2" cx="1794.4" cy="1157.1" r="215"/>
	<path d="M1763.7,1668.9l32.3-18.3l-86.7,3.9l-72.6,50.8l84.7,91.5c0,0,56.2-3,10.3-49.1c-37.6-40.7-10.2-74.4,25.1-77.3
		L1763.7,1668.9z"/>
	<path class="st2" d="M1761.3,1670.1"/>
	<path d="M1588.5,1847.1l-18.3,32.3l3.9-86.7l50.8-72.6l91.5,84.7c0,0-3,56.2-49.1,10.3c-40.7-37.6-74.4-10.2-77.3,25.1
		L1588.5,1847.1z"/>
	<path d="M1968.2,1873.5l18.3-32.3l-3.9,86.7l-50.8,72.6l-91.5-84.7c0,0,3-56.2,49.1-10.3c40.7,37.6,74.4,10.2,77.3-25.1
		L1968.2,1873.5z"/>
	<path d="M1790.1,2048.7l-32.3,18.3l86.7-3.9l72.6-50.8l-84.7-91.5c0,0-56.2,3-10.3,49.1c37.6,40.7,10.2,74.4-25.1,77.3
		L1790.1,2048.7z"/>
	<circle class="st2" cx="2480.4" cy="1859.5" r="215"/>
	<path d="M2465.7,1668.9l32.3-18.3l-86.7,3.9l-72.6,50.8l173,181.5c0,0,25.2-2.4-20.6-48.5c-37.6-40.7-117.4-157.4-32.2-167.9
		L2465.7,1668.9z"/>
	<path class="st2" d="M2463.3,1670.1"/>
	<path d="M2290.8,1845.9l-18.3,32.3l3.9-86.7l50.8-72.6l181.5,173c0,0-2.4,25.2-48.5-20.6c-40.7-37.6-157.4-117.4-167.9-32.2
		L2290.8,1845.9z"/>
	<path d="M2491.5,2049.6l-32.3,18.3l86.7-3.9l72.6-50.8l-173-181.5c0,0-25.2,2.4,20.6,48.5c37.6,40.7,117.4,157.4,32.2,167.9
		L2491.5,2049.6z"/>
	<path d="M2670.5,1874.7l18.3-32.3l-3.9,86.7l-50.8,72.6l-181.5-173c0,0,2.4-25.2,48.5,20.6c40.7,37.6,157.4,117.4,167.9,32.2
		L2670.5,1874.7z"/>
	<polygon points="2307.3,1710 2620.6,2017.7 2649.5,1982.4 2405.8,1773.7 2348.6,1691.3 	"/>
	<circle class="st2" cx="6634.6" cy="362.4" r="215"/>
	<circle class="st2" cx="5932.2" cy="362.4" r="215"/>
	<circle class="st3" cx="5132.8" cy="388.7" r="226.5"/>
	<circle class="st2" cx="5932.2" cy="1754.6" r="215"/>
	<circle class="st2" cx="6634.6" cy="1058.5" r="215"/>
	<circle class="st2" cx="5935.3" cy="1058.5" r="216.3"/>
	<circle class="st2" cx="6634.6" cy="2456.5" r="215"/>
	<circle class="st2" cx="7518.2" cy="2200.4" r="215"/>
	<circle class="st2" cx="8120.8" cy="1054" r="215"/>
	<circle class="st2" cx="6634.6" cy="1770.5" r="215"/>
	<path d="M6122.8,1739.9l18.3,32.3l-3.9-86.7l-50.8-72.6l-91.5,84.7c0,0,3,56.2,49.1,10.3c40.7-37.6,74.4-10.2,77.3,25.1
		L6122.8,1739.9z"/>
	<path class="st2" d="M6121.6,1737.4"/>
	<path d="M5944.6,1564.7l-32.3-18.3l86.7,3.9l72.6,50.8l-84.7,91.5c0,0-56.2-3-10.3-49.1c37.6-40.7,10.2-74.4-25.1-77.3
		L5944.6,1564.7z"/>
	<path d="M5918.2,1944.4l32.3,18.3l-86.7-3.9l-72.6-50.8l84.7-91.5c0,0,56.2,3,10.3,49.1c-37.6,40.7-10.2,74.4,25.1,77.3
		L5918.2,1944.4z"/>
	<path d="M5743,1766.2l-18.3-32.3l3.9,86.7l50.8,72.6l91.5-84.7c0,0-3-56.2-49.1-10.3c-40.7,37.6-74.4,10.2-77.3-25.1L5743,1766.2z"
		/>
	<circle class="st2" cx="5932.2" cy="2456.6" r="215"/>
	<path d="M6122.8,2441.9l18.3,32.3l-3.9-86.7l-50.8-72.6l-181.5,173c0,0,2.4,25.2,48.5-20.6c40.7-37.6,157.4-117.4,167.9-32.2
		L6122.8,2441.9z"/>
	<path class="st2" d="M6121.6,2439.4"/>
	<path d="M5945.8,2266.9l-32.3-18.3l86.7,3.9l72.6,50.8l-173,181.5c0,0-25.2-2.4,20.6-48.5c37.6-40.7,117.4-157.4,32.2-167.9
		L5945.8,2266.9z"/>
	<path d="M5742.1,2467.7l-18.3-32.3l3.9,86.7l50.8,72.6l181.5-173c0,0-2.4-25.2-48.5,20.6c-40.7,37.6-157.4,117.4-167.9,32.2
		L5742.1,2467.7z"/>
	<path d="M5917,2646.6l32.3,18.3l-86.7-3.9l-72.6-50.8l173-181.5c0,0,25.2,2.4-20.6,48.5c-37.6,40.7-117.4,157.4-32.2,167.9
		L5917,2646.6z"/>
	<polygon points="6081.7,2283.5 5774,2596.7 5809.2,2625.7 6018,2382 6100.4,2324.7 	"/>
</g>
<g id="Layer_1">
	<g>
		<path class="st4" d="M789.5-718.8c0.1,2,0.2,4,0.2,6c0,196,0,392,0,588c0,2-0.1,4-0.2,6c-0.3-0.2-0.9-0.3-1-0.5
			c-0.1-1.3,0-2.7,0-4c0-197,0-394,0-591C788.6-715.8,789.2-717.3,789.5-718.8z"/>
		<path class="st4" d="M1189.7-293.7c-67.7,0.6-124.1-55.6-124.5-124c-0.4-68.8,56.2-125.4,124.6-125.5
			c68.7-0.1,124.7,56.3,125,124.1C1315.2-349.7,1258.1-292.7,1189.7-293.7z M1301.8-418.5c-0.1-61.9-50.1-111.7-111.9-111.6
			c-61.8,0.1-111.8,50.2-111.6,111.9c0.2,62,50.2,111.8,111.9,111.6C1252.1-306.7,1301.9-356.7,1301.8-418.5z"/>
		<path d="M1301.8-418.5c0.1,61.8-49.7,111.7-111.6,111.9c-61.7,0.2-111.7-49.7-111.9-111.6c-0.2-61.7,49.8-111.9,111.6-111.9
			C1251.7-530.2,1301.7-480.4,1301.8-418.5z M1181-416.1c-3.9-3.2-7.3-5.8-10.6-8.6c-12-10.1-22.3-21.5-27.3-36.8
			c-1.5-4.4-4.8-6-8.5-4.6c-3.7,1.4-5,4.5-3.6,9.1c3,9.7,7.8,18.6,14.7,25.8c7.7,8,16,15.5,24.3,22.9c8.9,7.8,18.2,15,27.1,22.9
			c4.5,4,7.7,9.2,9,15.3c2.3,10.9-6.9,20.5-17.9,18.4c-9-1.7-14.1-9.9-12.2-20.2c0.9-5,2.4-10,3.8-15.4c-3.1-2.4-6.3-5-10-7.9
			c-5,11.6-8.8,22.8-6.2,35.2c3,14.5,18.3,24.2,33.1,21.2c14.3-2.8,24.5-17.3,22.5-31.4c-1.3-9.2-5.6-16.7-11.9-23.1
			c-4.9-5.1-10.3-9.8-15.7-14.9c4.5-7.6,9.1-15,13.5-22.7c6.2-10.9,10.9-22.4,12.2-35.1c1.6-14.7-8.2-28.6-22.4-31.6
			c-14.3-3-28.6,5.5-32.9,19.5c-2.8,9.2-1.4,18.1,3.8,25.8c4.2,6.2,9.9,11.6,15.2,17.1c2.3,2.4,5,4.3,7.8,6.6
			C1186.2-424.5,1183.8-420.6,1181-416.1z M1207.6-414.5c1.1,1.2,1.8,2,2.6,2.9c4.8,5.1,10.3,9.7,14.3,15.3
			c4.9,6.9,8.6,14.5,12.7,22c1.6,3,3.7,4.7,7.1,4.3c3.2-0.3,5.2-3,5.4-6.7c0-0.8,0-1.7,0-2.5c0-26.1,0-52.3,0-78.4c0-1,0.1-2,0-3
			c-0.4-3.5-2.6-5.5-5.8-5.8c-3.3-0.3-5.8,1.5-6.6,4.9c-0.4,1.8-0.5,3.6-0.5,5.4c0,15.8,0,31.6,0,47.5c0,1.7-0.2,3.3-0.3,6.1
			c-7.3-8.8-14.1-16.3-22.5-22.6C1211.6-421.4,1209.6-418,1207.6-414.5z M1130.7-433.1c-0.1,2.5-0.3,4.1-0.3,5.7
			c0,12.3,0,24.6,0,36.9c0,4.7-0.1,9.3,0.1,14c0.1,3.8,2.8,6.5,6.1,6.6c3.2,0.1,5.8-2.2,6.5-5.7c0.2-1.1,0.3-2.3,0.3-3.5
			c0-11.8,0-23.6,0-35.4c0-1.4,0-3.3-0.8-4.3C1138.9-423.4,1135-427.9,1130.7-433.1z"/>
		<path class="st4" d="M1181-416.1c2.8-4.5,5.2-8.4,7.8-12.6c-2.8-2.3-5.5-4.2-7.8-6.6c-5.2-5.5-10.9-10.8-15.2-17.1
			c-5.2-7.7-6.6-16.6-3.8-25.8c4.3-14.1,18.6-22.5,32.9-19.5c14.3,3,24,17,22.4,31.6c-1.4,12.7-6,24.1-12.2,35.1
			c-4.3,7.6-9,15.1-13.5,22.7c5.3,5,10.7,9.7,15.7,14.9c6.2,6.5,10.6,14,11.9,23.1c2,14.2-8.2,28.6-22.5,31.4
			c-14.9,2.9-30.1-6.7-33.1-21.2c-2.6-12.3,1.2-23.6,6.2-35.2c3.7,3,7,5.5,10,7.9c-1.3,5.5-2.8,10.4-3.8,15.4
			c-1.9,10.3,3.2,18.5,12.2,20.2c11,2,20.2-7.5,17.9-18.4c-1.3-6.1-4.4-11.3-9-15.3c-8.8-7.8-18.2-15.1-27.1-22.9
			c-8.3-7.4-16.7-14.8-24.3-22.9c-6.9-7.3-11.7-16.2-14.7-25.8c-1.4-4.5-0.1-7.6,3.6-9.1c3.6-1.4,7,0.2,8.5,4.6
			c5.1,15.3,15.4,26.7,27.3,36.8C1173.7-421.9,1177.1-419.3,1181-416.1z M1195.2-440.3c5.1-9.3,8.8-18.5,9.1-28.7
			c0.2-6.8-2.7-12-8.9-14.8c-5.8-2.6-11.5-2-16.3,2.2c-5.1,4.4-6.6,10.2-4.7,16.7C1177.7-453.7,1186.6-447.5,1195.2-440.3z"/>
		<path class="st4" d="M1207.6-414.5c2-3.4,4-6.9,6.2-10.8c8.4,6.3,15.2,13.7,22.5,22.6c0.2-2.8,0.3-4.4,0.3-6.1
			c0-15.8,0-31.6,0-47.5c0-1.8,0.1-3.7,0.5-5.4c0.8-3.4,3.3-5.1,6.6-4.9c3.3,0.3,5.5,2.3,5.8,5.8c0.1,1,0,2,0,3
			c0,26.1,0,52.3,0,78.4c0,0.8,0,1.7,0,2.5c-0.2,3.8-2.2,6.4-5.4,6.7c-3.3,0.4-5.5-1.3-7.1-4.3c-4-7.4-7.8-15.1-12.7-22
			c-4-5.6-9.5-10.2-14.3-15.3C1209.4-412.5,1208.7-413.4,1207.6-414.5z"/>
		<path class="st4" d="M1130.7-433.1c4.4,5.2,8.2,9.7,11.8,14.3c0.8,1,0.8,2.8,0.8,4.3c0.1,11.8,0,23.6,0,35.4
			c0,1.2-0.1,2.3-0.3,3.5c-0.7,3.5-3.4,5.8-6.5,5.7c-3.3-0.1-6-2.8-6.1-6.6c-0.1-4.6-0.1-9.3-0.1-14c0-12.3,0-24.6,0-36.9
			C1130.4-429,1130.5-430.6,1130.7-433.1z"/>
		<path d="M1195.2-440.3c-8.7-7.2-17.6-13.4-20.8-24.6c-1.9-6.5-0.4-12.3,4.7-16.7c4.8-4.2,10.5-4.9,16.3-2.2
			c6.2,2.9,9.1,8,8.9,14.8C1204.1-458.8,1200.4-449.6,1195.2-440.3z"/>
	</g>
	<g>
		<path class="st4" d="M2401.6,336.9c-11,0.2-20.7,3.4-29.2,10.3c-21.4,17.4-22.8,48.4-2.9,68.4c37.6,37.8,75.4,75.4,113.1,113.1
			c13.7,13.7,27.2,27.5,41,40.9c15.5,15.1,38.6,17.4,56.6,5.9c24.9-15.9,28.5-49.9,7.3-71.3c-31.4-31.7-63.1-63.2-94.7-94.7
			c-19.4-19.4-38.9-38.8-58.3-58.3C2425.4,342,2414.5,337.3,2401.6,336.9z M2355.6,437c0,34.9-0.6,68.7,0.2,102.5
			c0.6,28.7,29.2,49,57,41.7c20.7-5.4,34-23.1,34.5-45.3c0.1-5.1-1.2-8.9-5-12.7c-27.6-27.2-55-54.8-82.4-82.2
			C2358.7,439.9,2357.5,438.8,2355.6,437z M2600.9,482.2c0.2-0.9,0.5-1.3,0.5-1.8c0-33.3,0.4-66.6-0.1-99.9
			c-0.4-23.7-20.6-43-44.3-43.6c-25.6-0.7-46.1,19.2-47.2,45.4c-0.3,6,1.2,10.4,5.7,14.8c27.4,26.9,54.5,54.3,81.7,81.5
			C2598.2,479.9,2599.4,480.9,2600.9,482.2z"/>
		<path d="M2401.6,336.9c12.8,0.4,23.8,5.1,32.9,14.3c19.4,19.5,38.9,38.9,58.3,58.3c31.6,31.6,63.2,63,94.7,94.7
			c21.2,21.4,17.6,55.4-7.3,71.3c-17.9,11.5-41.1,9.2-56.6-5.9c-13.8-13.5-27.4-27.3-41-40.9c-37.7-37.7-75.5-75.3-113.1-113.1
			c-19.9-20-18.5-51,2.9-68.4C2380.9,340.3,2390.7,337.1,2401.6,336.9z"/>
		<path d="M2355.6,437c1.9,1.8,3.1,2.9,4.3,4c27.4,27.4,54.8,55,82.4,82.2c3.8,3.8,5.1,7.5,5,12.7c-0.6,22.3-13.9,39.9-34.5,45.3
			c-27.8,7.3-56.3-13-57-41.7C2355,505.7,2355.6,471.9,2355.6,437z"/>
		<path d="M2600.9,482.2c-1.4-1.3-2.6-2.4-3.8-3.5c-27.2-27.2-54.3-54.5-81.7-81.5c-4.5-4.4-6-8.8-5.7-14.8
			c1.1-26.2,21.6-46.1,47.2-45.4c23.7,0.6,43.9,19.9,44.3,43.6c0.5,33.3,0.2,66.6,0.1,99.9C2601.3,480.9,2601.1,481.3,2600.9,482.2z
			"/>
	</g>
	<g>
		<path d="M283.1,302.2c16.7,0.5,31,6.7,42.9,18.7c25.3,25.4,50.6,50.7,76,76c41.1,41.1,82.4,82.2,123.4,123.5
			c27.7,27.9,22.9,72.2-9.5,92.9c-23.4,14.9-53.5,12-73.7-7.7c-18-17.6-35.7-35.6-53.5-53.4c-49.1-49.1-98.4-98.2-147.4-147.4
			c-26-26.1-24.1-66.4,3.8-89.2C256,306.7,268.8,302.5,283.1,302.2z"/>
		<path d="M416.7,622.3c-3.5,0.1-5.6,0.2-7.7,0.2c-50.6,0-101.1-0.2-151.7,0.2c-7,0-11.6-2.2-16.3-7.1c-20-21-24-49.6-10-73.6
			c18.9-32.3,64-39.9,91-14.1C353.9,558.5,384.5,590.1,416.7,622.3z"/>
		<path d="M356,302.8c2.5-0.1,4.6-0.3,6.7-0.3c50.1,0,100.3,0.2,150.4-0.2c8.3-0.1,13.7,2.6,19,8.4c23.2,25.2,22.6,62.4-1.6,85.4
			c-22.4,21.3-58.8,22.2-81,0.7c-31.2-30.2-61.5-61.2-92.2-91.9C356.8,304.5,356.6,303.9,356,302.8z"/>
	</g>
	<g>
		<path d="M309.4,1034.1c12.8,0.4,23.8,5.1,32.9,14.3c19.4,19.5,38.9,38.9,58.3,58.3c31.6,31.6,63.2,63,94.7,94.7
			c21.2,21.4,17.6,55.4-7.3,71.3c-17.9,11.5-41.1,9.2-56.6-5.9c-13.8-13.5-27.4-27.3-41-40.9c-37.7-37.7-75.5-75.3-113-113.1
			c-19.9-20-18.5-51,2.9-68.4C288.7,1037.5,298.4,1034.3,309.4,1034.1z"/>
	</g>
	<circle cx="463.3" cy="1080.4" r="45.9"/>
	<circle cx="309.6" cy="1234.1" r="45.9"/>
	<g>
		<path d="M2431.9,2520.9c12.8,0.4,23.8,5.1,32.9,14.3c19.4,19.5,38.9,38.9,58.3,58.3c31.6,31.6,63.2,63,94.7,94.7
			c21.2,21.4,17.6,55.4-7.3,71.3c-17.9,11.5-41.1,9.2-56.6-5.9c-13.8-13.5-27.4-27.3-41-40.9c-37.7-37.7-75.5-75.3-113-113.1
			c-19.9-20-18.5-51,2.9-68.4C2411.2,2524.3,2421,2521.1,2431.9,2520.9z"/>
	</g>
	<g>
		<path d="M2677.8,2520.9c12.8,0.4,23.8,5.1,32.9,14.3c19.4,19.5,38.9,38.9,58.3,58.3c31.6,31.6,63.2,63,94.7,94.7
			c21.2,21.4,17.6,55.4-7.3,71.3c-17.9,11.5-41.1,9.2-56.6-5.9c-13.8-13.5-27.4-27.3-41-40.9c-37.7-37.7-75.5-75.3-113-113.1
			c-19.9-20-18.5-51,2.9-68.4C2657.1,2524.3,2666.9,2521.1,2677.8,2520.9z"/>
	</g>
	<g>
		<path d="M2923.7,2520.9c12.8,0.4,23.8,5.1,32.9,14.3c19.4,19.5,38.9,38.9,58.3,58.3c31.6,31.6,63.2,63,94.7,94.7
			c21.2,21.4,17.6,55.4-7.3,71.3c-17.9,11.5-41.1,9.2-56.6-5.9c-13.8-13.5-27.4-27.3-41-40.9c-37.7-37.7-75.5-75.3-113.1-113.1
			c-19.9-20-18.5-51,2.9-68.4C2903,2524.3,2912.7,2521.1,2923.7,2520.9z"/>
	</g>
	<circle cx="2417.3" cy="2736.7" r="45.9"/>
	<g>
		<path d="M3106.4,1791.8c9.8,0.3,18.2,3.9,25.2,11c14.8,14.9,29.7,29.8,44.6,44.6c24.2,24.2,48.4,48.2,72.4,72.5
			c16.2,16.4,13.5,42.4-5.6,54.6c-13.7,8.8-31.4,7-43.3-4.5c-10.6-10.3-20.9-20.9-31.4-31.3c-28.8-28.8-57.7-57.6-86.5-86.6
			c-15.2-15.3-14.1-39,2.2-52.3C3090.5,1794.4,3098,1791.9,3106.4,1791.8z"/>
	</g>
	<circle cx="3224.2" cy="1827.2" r="35.1"/>
	<circle cx="3106.6" cy="1944.8" r="35.1"/>
	<g>
		<path d="M250.9,1678c12.8,0.4,23.8,5.1,32.9,14.3c19.4,19.5,97.4,97.4,116.8,116.8c31.6,31.6,115.6,115.5,147.1,147.2
			c21.2,21.4,17.6,55.4-7.3,71.3c-17.9,11.5-41.1,9.2-56.6-5.9c-13.8-13.5-79.8-79.7-93.5-93.4c-37.7-37.7-134-133.8-171.6-171.6
			c-19.9-20-18.5-51,2.9-68.4C230.2,1681.4,239.9,1678.2,250.9,1678z"/>
	</g>
	<circle cx="463.3" cy="1782.8" r="45.9"/>
	<circle cx="309.6" cy="1936.5" r="45.9"/>
	<g>
		<path d="M1643.1,1678c12.8,0.4,23.8,5.1,32.9,14.3c19.4,19.5,97.4,97.4,116.8,116.8c31.6,31.6,115.6,115.5,147.1,147.2
			c21.2,21.4,17.6,55.4-7.3,71.3c-17.9,11.5-41.1,9.2-56.6-5.9c-13.8-13.5-79.8-79.7-93.5-93.4c-37.7-37.7-134-133.8-171.6-171.6
			c-19.9-20-18.5-51,2.9-68.4C1622.4,1681.4,1632.2,1678.2,1643.1,1678z"/>
	</g>
	<circle cx="1855.6" cy="1782.8" r="45.9"/>
	<circle cx="1701.8" cy="1936.5" r="45.9"/>
	<circle cx="2557.6" cy="1782.8" r="45.9"/>
	<circle cx="2403.8" cy="1936.5" r="45.9"/>
	<g>
		<path d="M1005.6,1034.1c12.8,0.4,23.8,5.1,32.9,14.3c19.4,19.5,38.9,38.9,58.3,58.3c31.6,31.6,63.2,63,94.7,94.7
			c21.2,21.4,17.6,55.4-7.3,71.3c-17.9,11.5-41.1,9.2-56.6-5.9c-13.8-13.5-27.4-27.3-41-40.9c-37.7-37.7-75.5-75.3-113.1-113.1
			c-19.9-20-18.5-51,2.9-68.4C984.8,1037.5,994.6,1034.3,1005.6,1034.1z"/>
	</g>
	<circle cx="1159.5" cy="1080.4" r="45.9"/>
	<circle cx="1005.8" cy="1234.1" r="45.9"/>
	<g>
		<circle cx="1005.8" cy="1234.1" r="45.9"/>
		<rect x="959.8" y="1234.1" width="91.8" height="120.7"/>
	</g>
	<g>
		<circle cx="1159.5" cy="1080.4" r="45.9"/>
		
			<rect x="1113.6" y="959.7" transform="matrix(-1 -1.224647e-16 1.224647e-16 -1 2318.959 2040.1587)" width="91.8" height="120.7"/>
	</g>
	<g>
		<path d="M1005.6,1733.4c12.8,0.4,23.8,5.1,32.9,14.3c19.4,19.5,38.9,38.9,58.3,58.3c31.6,31.6,63.2,63,94.7,94.7
			c21.2,21.4,17.6,55.4-7.3,71.3c-17.9,11.5-41.1,9.2-56.6-5.9c-13.8-13.5-27.4-27.3-41-40.9c-37.7-37.7-75.5-75.3-113.1-113.1
			c-19.9-20-18.5-51,2.9-68.4C984.8,1736.9,994.6,1733.6,1005.6,1733.4z"/>
	</g>
	<circle cx="1159.5" cy="1779.8" r="45.9"/>
	<circle cx="1005.8" cy="1933.5" r="45.9"/>
	<g>
		<circle cx="1005.8" cy="1933.5" r="45.9"/>
		<rect x="959.8" y="1779.8" width="91.8" height="274.4"/>
	</g>
	<g>
		<circle cx="1159.5" cy="1779.8" r="45.9"/>
		
			<rect x="1113.6" y="1659.1" transform="matrix(-1 -1.224647e-16 1.224647e-16 -1 2318.959 3595.6182)" width="91.8" height="277.4"/>
	</g>
	<g>
		<path d="M2403.6,1034.1c12.8,0.4,23.8,5.1,32.9,14.3c19.4,19.5,38.9,38.9,58.3,58.3c31.6,31.6,63.2,63,94.7,94.7
			c21.2,21.4,17.6,55.4-7.3,71.3c-17.9,11.5-41.1,9.2-56.6-5.9c-13.8-13.5-27.4-27.3-41-40.9c-37.7-37.7-75.5-75.3-113-113.1
			c-19.9-20-18.5-51,2.9-68.4C2382.8,1037.5,2392.6,1034.3,2403.6,1034.1z"/>
	</g>
	<circle cx="2557.5" cy="1080.4" r="45.9"/>
	<circle cx="2403.8" cy="1234.1" r="45.9"/>
	<g>
		<ellipse transform="matrix(0.7071 -0.7071 0.7071 0.7071 -168.608 2061.1882)" cx="2403.8" cy="1234.1" rx="45.9" ry="45.9"/>
		
			<rect x="2315.2" y="1216.5" transform="matrix(0.7071 0.7071 -0.7071 0.7071 1594.3752 -1295.5941)" width="91.8" height="120.7"/>
	</g>
	<g>
		<ellipse transform="matrix(0.7071 -0.7071 0.7071 0.7071 -14.8987 2124.8567)" cx="2557.5" cy="1080.4" rx="45.9" ry="45.9"/>
		
			<rect x="2554.2" y="977.4" transform="matrix(-0.7071 -0.7071 0.7071 -0.7071 3704.9189 3610.1289)" width="91.8" height="120.7"/>
	</g>
	<g>
		<path d="M3694.7,197.2c13.7,0.4,25.4,5.5,35.2,15.4c20.7,20.9,41.6,41.6,62.4,62.5c33.8,33.8,67.7,67.5,101.4,101.4
			c22.7,22.9,18.8,59.3-7.8,76.3c-19.2,12.3-44,9.8-60.6-6.4c-14.8-14.4-29.3-29.2-43.9-43.8c-40.4-40.4-80.8-80.6-121.1-121.1
			c-21.3-21.4-19.8-54.6,3.1-73.2C3672.5,200.9,3683,197.4,3694.7,197.2z"/>
	</g>
	<circle cx="3859.5" cy="246.8" r="49.2"/>
	<circle cx="3694.9" cy="411.4" r="49.2"/>
	<g>
		<ellipse transform="matrix(0.7071 -0.7071 0.7071 0.7071 791.3063 2733.2036)" cx="3694.9" cy="411.4" rx="49.2" ry="49.2"/>
		<rect x="3600.1" y="392.5" transform="matrix(0.7071 0.7071 -0.7071 0.7071 1392.0509 -2446.5227)" width="98.3" height="129.2"/>
	</g>
	<g>
		<ellipse transform="matrix(0.7071 -0.7071 0.7071 0.7071 955.8963 2801.3792)" cx="3859.5" cy="246.8" rx="49.2" ry="49.2"/>
		<rect x="3856" y="136.5" transform="matrix(-0.7071 -0.7071 0.7071 -0.7071 6524.3564 3104.7542)" width="98.3" height="129.2"/>
	</g>
	<g>
		<path d="M3089.6,1034.1c12.8,0.4,23.8,5.1,32.9,14.3c19.4,19.5,38.9,38.9,58.3,58.3c31.6,31.6,63.2,63,94.7,94.7
			c21.2,21.4,17.6,55.4-7.3,71.3c-17.9,11.5-41.1,9.2-56.6-5.9c-13.8-13.5-27.4-27.3-41-40.9c-37.7-37.7-75.5-75.3-113-113.1
			c-19.9-20-18.5-51,2.9-68.4C3068.8,1037.5,3078.6,1034.3,3089.6,1034.1z"/>
	</g>
	<circle cx="3243.5" cy="1080.4" r="45.9"/>
	<circle cx="3089.8" cy="1234.1" r="45.9"/>
	<g>
		<ellipse transform="matrix(0.7071 -0.7071 0.7071 0.7071 32.3167 2546.2634)" cx="3089.8" cy="1234.1" rx="45.9" ry="45.9"/>
		<rect x="3001.2" y="1216.5" transform="matrix(0.7071 0.7071 -0.7071 0.7071 1795.3 -1780.6694)" width="91.8" height="120.7"/>
	</g>
	<g>
		<ellipse transform="matrix(0.7071 -0.7071 0.7071 0.7071 186.026 2609.9319)" cx="3243.5" cy="1080.4" rx="45.9" ry="45.9"/>
		
			<rect x="3240.2" y="977.4" transform="matrix(-0.7071 -0.7071 0.7071 -0.7071 4875.9941 4095.2041)" width="91.8" height="120.7"/>
	</g>
	<g>
		<path d="M1717.6,1034.1c12.8,0.4,23.8,5.1,32.9,14.3c19.4,19.5,38.9,38.9,58.3,58.3c31.6,31.6,63.2,63,94.7,94.7
			c21.2,21.4,17.6,55.4-7.3,71.3c-17.9,11.5-41.1,9.2-56.6-5.9c-13.8-13.5-27.4-27.3-41-40.9c-37.7-37.7-75.5-75.3-113.1-113.1
			c-19.9-20-18.5-51,2.9-68.4C1696.8,1037.5,1706.6,1034.3,1717.6,1034.1z"/>
	</g>
	<circle cx="1871.5" cy="1080.4" r="45.9"/>
	<circle cx="1717.8" cy="1234.1" r="45.9"/>
	<g>
		<circle cx="1717.8" cy="1234.1" r="45.9"/>
		<rect x="1671.8" y="1234.1" width="91.8" height="120.7"/>
	</g>
	<g>
		<circle cx="1871.5" cy="1080.4" r="45.9"/>
		
			<rect x="1825.6" y="959.7" transform="matrix(-1 -1.224647e-16 1.224647e-16 -1 3742.959 2040.1587)" width="91.8" height="120.7"/>
	</g>
	<g>
		<path d="M3249.8,1635.7c6.7,7.1,10.1,15.6,10,25.6c-0.1,21,0,42.1,0,63.1c0,34.2,0.1,68.3,0,102.5c-0.1,23.1-20.5,39.5-42.5,34.6
			c-15.9-3.5-27.2-17.3-27.4-33.8c-0.2-14.8-0.1-29.6-0.1-44.4c0-40.8-0.1-81.6,0-122.4c0.1-21.6,17.6-37.6,38.6-35.4
			C3236.7,1626.4,3243.7,1629.9,3249.8,1635.7z"/>
	</g>
	<g>
		<path d="M3132,1920.1c6.7,7.1,10.1,15.6,10,25.6c-0.1,21,0,42.1,0,63.1c0,34.2,0.1,68.3,0,102.5c-0.1,23.1-20.5,39.5-42.5,34.6
			c-15.9-3.5-27.2-17.3-27.4-33.8c-0.2-14.8-0.1-29.6-0.1-44.4c0-40.8-0.1-81.6,0-122.4c0.1-21.6,17.6-37.6,38.6-35.4
			C3118.9,1910.7,3125.9,1914.3,3132,1920.1z"/>
	</g>
	<circle cx="1763.9" cy="2539.1" r="39.1"/>
	<g>
		<path d="M1917.2,2501.5c10.9,0.3,20.3,4.4,28,12.2c16.5,16.6,33.1,33.1,49.7,49.7c26.9,26.9,53.9,53.7,80.7,80.7
			c18.1,18.2,15,47.2-6.2,60.8c-15.3,9.8-35,7.8-48.2-5.1c-11.8-11.5-23.3-23.2-35-34.9c-32.1-32.1-64.3-64.2-96.3-96.4
			c-17-17.1-15.7-43.4,2.5-58.3C1899.5,2504.4,1907.8,2501.6,1917.2,2501.5z"/>
	</g>
	<g>
		<path d="M1632.7,2555.2c10.9,0.3,20.3,4.4,28,12.2c16.5,16.6,33.1,33.1,49.7,49.7c26.9,26.9,53.9,53.7,80.7,80.7
			c18.1,18.2,15,47.2-6.2,60.8c-15.3,9.8-35,7.8-48.2-5.1c-11.8-11.5-23.3-23.2-35-34.9c-32.1-32.1-64.3-64.2-96.3-96.4
			c-17-17.1-15.7-43.4,2.5-58.3C1615,2558.1,1623.3,2555.3,1632.7,2555.2z"/>
	</g>
	<g>
		<path d="M1792.2,2511.5c7.5,8,11.2,17.4,11.2,28.5c-0.1,23.4,0,46.8,0,70.3c0,38,0.1,76.1,0,114.1c-0.1,25.7-22.8,44-47.4,38.6
			c-17.7-3.9-30.3-19.2-30.5-37.7c-0.2-16.5-0.1-32.9-0.1-49.4c0-45.4-0.1-90.9,0-136.3c0.1-24.1,19.6-41.9,43-39.5
			C1777.7,2501.1,1785.5,2505,1792.2,2511.5z"/>
	</g>
	<path d="M1954.2,2720.7c0.6-65.5,36.5-50.4,59.6-28c23.1,22.4,24.9-41.1,24.9-41.1l-85.1-45.4l-31.7,44.5l16.2,60.3L1954.2,2720.7z
		"/>
	<path d="M3559.2,2590"/>
	<text transform="matrix(1 0 0 1 789.7061 524.772)" class="st5 st6">NANOGRID째</text>
	<text transform="matrix(1 0 0 1 2289.334 689.5653)" class="st5 st7">NANOGRID째</text>
	<text transform="matrix(1 0 0 1 2289.334 1498.209)" class="st5 st7">NANOGRID째</text>
	<text transform="matrix(1 0 0 1 2289.334 2198.209)" class="st5 st7">NANOGRID째</text>
	<text transform="matrix(1 0 0 1 3444.0723 728.4873)" class="st5 st8">OPEN NANOGRID</text>
	<g>
		<path class="st4" d="M8636.2,2162c-0.2-11-3.4-20.7-10.3-29.2c-17.4-21.4-48.4-22.8-68.4-2.9c-37.8,37.6-75.4,75.4-113.1,113.1
			c-13.7,13.7-27.5,27.2-40.9,41c-15.1,15.5-17.4,38.6-5.9,56.6c15.9,24.9,49.9,28.5,71.3,7.3c31.7-31.4,63.2-63.1,94.7-94.7
			c19.4-19.4,38.8-38.9,58.3-58.3C8631,2185.8,8635.8,2174.8,8636.2,2162z M8536.1,2116c-34.9,0-68.7-0.6-102.5,0.2
			c-28.7,0.6-49,29.2-41.7,57c5.4,20.7,23.1,34,45.3,34.5c5.1,0.1,8.9-1.2,12.7-5c27.2-27.6,54.8-55,82.2-82.4
			C8533.2,2119.1,8534.2,2117.9,8536.1,2116z M8490.8,2361.3c0.9,0.2,1.3,0.5,1.8,0.5c33.3,0,66.6,0.4,99.9-0.1
			c23.7-0.4,43-20.6,43.6-44.3c0.7-25.6-19.2-46.1-45.4-47.2c-6-0.3-10.4,1.2-14.8,5.7c-26.9,27.4-54.3,54.5-81.5,81.7
			C8493.2,2358.6,8492.2,2359.8,8490.8,2361.3z"/>
		<path d="M8636.2,2162c-0.4,12.8-5.1,23.8-14.3,32.9c-19.5,19.4-38.9,38.9-58.3,58.3c-31.6,31.6-63,63.2-94.7,94.7
			c-21.4,21.2-55.4,17.6-71.3-7.3c-11.5-17.9-9.2-41.1,5.9-56.6c13.5-13.8,27.3-27.4,40.9-41c37.7-37.7,75.3-75.5,113.1-113.1
			c20-19.9,51-18.5,68.4,2.9C8632.8,2141.3,8636,2151.1,8636.2,2162z"/>
		<path d="M8536.1,2116c-1.8,1.9-2.9,3.1-4,4.3c-27.4,27.4-55,54.8-82.2,82.4c-3.8,3.8-7.5,5.1-12.7,5
			c-22.3-0.6-39.9-13.9-45.3-34.5c-7.3-27.8,13-56.3,41.7-57C8467.3,2115.4,8501.1,2116,8536.1,2116z"/>
		<path d="M8490.8,2361.3c1.3-1.4,2.4-2.6,3.5-3.8c27.2-27.2,54.5-54.3,81.5-81.7c4.4-4.5,8.8-6,14.8-5.7
			c26.2,1.1,46.1,21.6,45.4,47.2c-0.6,23.7-19.9,43.9-43.6,44.3c-33.3,0.5-66.6,0.2-99.9,0.1
			C8492.2,2361.7,8491.7,2361.5,8490.8,2361.3z"/>
	</g>
	<g>
		<path class="st4" d="M7334.5,259.2c-0.2-14.3-4.5-27-13.4-38c-22.7-27.9-63.1-29.7-89.2-3.8c-49.3,49-98.3,98.2-147.4,147.4
			c-17.8,17.8-35.8,35.5-53.4,53.5c-19.7,20.2-22.7,50.3-7.7,73.7c20.7,32.4,65,37.2,92.9,9.5c41.3-41,82.3-82.2,123.5-123.4
			c25.3-25.3,50.6-50.7,76-76C7327.8,290.2,7334,275.9,7334.5,259.2z M7204,199.2c-45.5,0-89.6-0.8-133.6,0.2
			c-37.4,0.8-63.9,38.1-54.4,74.3c7.1,26.9,30.1,44.3,59.1,45c6.7,0.2,11.6-1.5,16.5-6.5c35.5-36,71.4-71.6,107.1-107.4
			C7200.2,203.3,7201.6,201.7,7204,199.2z M7145,518.9c1.2,0.3,1.8,0.6,2.3,0.6c43.4,0,86.8,0.5,130.2-0.2
			c30.9-0.5,56-26.8,56.8-57.8c0.9-33.4-25.1-60.1-59.2-61.6c-7.8-0.3-13.6,1.6-19.4,7.5c-35.1,35.8-70.7,71.1-106.2,106.5
			C7148.1,515.5,7146.8,517.1,7145,518.9z"/>
		<path d="M7334.5,259.2c-0.5,16.7-6.7,31-18.7,42.9c-25.4,25.3-50.7,50.6-76,76c-41.1,41.1-82.2,82.4-123.5,123.4
			c-27.9,27.7-72.2,22.9-92.9-9.5c-14.9-23.4-12-53.5,7.7-73.7c17.6-18,35.6-35.7,53.4-53.5c49.1-49.1,98.2-98.4,147.4-147.4
			c26.1-26,66.4-24.1,89.2,3.8C7330,232.2,7334.3,244.9,7334.5,259.2z"/>
		<path d="M7014.4,392.8c-0.1-3.5-0.2-5.6-0.2-7.7c0-50.6,0.2-101.1-0.2-151.7c0-7,2.2-11.6,7.1-16.3c21-20,49.6-24,73.6-10
			c32.3,18.9,39.9,64,14.1,91C7078.3,330,7046.6,360.6,7014.4,392.8z"/>
		<path d="M7333.9,332.1c0.1,2.5,0.3,4.6,0.3,6.7c0,50.1-0.2,100.3,0.2,150.4c0.1,8.3-2.6,13.7-8.4,19
			c-25.2,23.2-62.4,22.6-85.4-1.6c-21.3-22.4-22.2-58.8-0.7-81c30.2-31.2,61.2-61.5,91.9-92.2
			C7332.2,332.9,7332.8,332.7,7333.9,332.1z"/>
	</g>
	<g>
		<path d="M6757.6,285.6c-0.4,12.8-5.1,23.8-14.3,32.9c-19.5,19.4-38.9,38.9-58.3,58.3c-31.6,31.6-63,63.2-94.7,94.7
			c-21.4,21.2-55.4,17.6-71.3-7.3c-11.5-17.9-9.2-41.1,5.9-56.6c13.5-13.8,27.3-27.4,40.9-41c37.7-37.7,75.3-75.5,113.1-113
			c20-19.9,51-18.5,68.4,2.9C6754.2,264.8,6757.4,274.6,6757.6,285.6z"/>
	</g>
	<circle cx="6711.3" cy="439.5" r="45.9"/>
	<circle cx="6557.6" cy="285.8" r="45.9"/>
	<g>
		<path d="M5270.8,2408.1c-0.4,12.8-5.1,23.8-14.3,32.9c-19.5,19.4-38.9,38.9-58.3,58.3c-31.6,31.6-63,63.2-94.7,94.7
			c-21.4,21.2-55.4,17.6-71.3-7.3c-11.5-17.9-9.2-41.1,5.9-56.6c13.5-13.8,27.3-27.4,40.9-41c37.7-37.7,75.3-75.5,113.1-113.1
			c20-19.9,51-18.5,68.4,2.9C5267.3,2387.3,5270.6,2397.1,5270.8,2408.1z"/>
	</g>
	<g>
		<path d="M5270.8,2654c-0.4,12.8-5.1,23.8-14.3,32.9c-19.5,19.4-38.9,38.9-58.3,58.3c-31.6,31.6-63,63.2-94.7,94.7
			c-21.4,21.2-55.4,17.6-71.3-7.3c-11.5-17.9-9.2-41.1,5.9-56.6c13.5-13.8,27.3-27.4,40.9-41c37.7-37.7,75.3-75.5,113.1-113.1
			c20-19.9,51-18.5,68.4,2.9C5267.3,2633.2,5270.6,2643,5270.8,2654z"/>
	</g>
	<g>
		<path d="M5270.8,2899.9c-0.4,12.8-5.1,23.8-14.3,32.9c-19.5,19.4-38.9,38.9-58.3,58.3c-31.6,31.6-63,63.2-94.7,94.7
			c-21.4,21.2-55.4,17.6-71.3-7.3c-11.5-17.9-9.2-41.1,5.9-56.6c13.5-13.8,27.3-27.4,40.9-41c37.7-37.7,75.3-75.5,113.1-113.1
			c20-19.9,51-18.5,68.4,2.9C5267.3,2879.1,5270.6,2888.9,5270.8,2899.9z"/>
	</g>
	<g>
		<path d="M6183.5,3099.4c-12.8-0.4-23.8-5.1-32.9-14.3c-19.4-19.5-38.9-38.9-58.3-58.3c-31.6-31.6-63.2-63-94.7-94.7
			c-21.2-21.4-17.6-55.4,7.3-71.3c17.9-11.5,41.1-9.2,56.6,5.9c13.8,13.5,27.4,27.3,41,40.9c37.7,37.7,75.5,75.3,113,113.1
			c19.9,20,18.5,51-2.9,68.4C6204.2,3096,6194.5,3099.2,6183.5,3099.4z"/>
	</g>
	<g>
		<path d="M5870.4,3099.4c-12.8-0.4-23.8-5.1-32.9-14.3c-19.4-19.5-38.9-38.9-58.3-58.3c-31.6-31.6-63.2-63-94.7-94.7
			c-21.2-21.4-17.6-55.4,7.3-71.3c17.9-11.5,41.1-9.2,56.6,5.9c13.8,13.5,27.4,27.3,41,40.9c37.7,37.7,75.5,75.3,113.1,113.1
			c19.9,20,18.5,51-2.9,68.4C5891.2,3096,5881.4,3099.2,5870.4,3099.4z"/>
	</g>
	<g>
		<path d="M5826.5,3053.2c0.4-12.8,5.1-23.8,14.3-32.9c19.5-19.4,38.9-38.9,58.3-58.3c31.6-31.6,63-63.2,94.7-94.7
			c21.4-21.2,55.4-17.6,71.3,7.3c11.5,17.9,9.2,41.1-5.9,56.6c-13.5,13.8-27.3,27.4-40.9,41c-37.7,37.7-75.3,75.5-113.1,113
			c-20,19.9-51,18.5-68.4-2.9C5830,3074,5826.7,3064.2,5826.5,3053.2z"/>
	</g>
	<circle cx="5055" cy="2393.5" r="45.9"/>
	<g>
		<path d="M7486.1,994c-0.3,9.8-3.9,18.2-11,25.2c-14.9,14.8-29.8,29.7-44.6,44.6c-24.2,24.2-48.2,48.4-72.5,72.4
			c-16.4,16.2-42.4,13.5-54.6-5.6c-8.8-13.7-7-31.4,4.5-43.3c10.3-10.6,20.9-20.9,31.3-31.4c28.8-28.8,57.6-57.7,86.6-86.5
			c15.3-15.2,39-14.1,52.3,2.2C7483.5,978.1,7486,985.6,7486.1,994z"/>
	</g>
	<circle cx="7450.7" cy="1111.8" r="35.1"/>
	<circle cx="7333.1" cy="994.2" r="35.1"/>
	<g>
		<path d="M6113.7,227c-0.4,12.8-5.1,23.8-14.3,32.9c-19.5,19.4-97.4,97.4-116.8,116.8c-31.6,31.6-115.5,115.6-147.2,147.1
			c-21.4,21.2-55.4,17.6-71.3-7.3c-11.5-17.9-9.2-41.1,5.9-56.6c13.5-13.8,79.7-79.8,93.4-93.5c37.7-37.7,133.8-134,171.6-171.6
			c20-19.9,51-18.5,68.4,2.9C6110.3,206.3,6113.5,216.1,6113.7,227z"/>
	</g>
	<circle cx="6008.9" cy="439.5" r="45.9"/>
	<circle cx="5855.2" cy="285.8" r="45.9"/>
	<g>
		<path d="M6113.7,1619.3c-0.4,12.8-5.1,23.8-14.3,32.9c-19.5,19.4-97.4,97.4-116.8,116.8c-31.6,31.6-115.5,115.6-147.2,147.1
			c-21.4,21.2-55.4,17.6-71.3-7.3c-11.5-17.9-9.2-41.1,5.9-56.6c13.5-13.8,79.7-79.8,93.4-93.5c37.7-37.7,133.8-134,171.6-171.6
			c20-19.9,51-18.5,68.4,2.9C6110.3,1598.5,6113.5,1608.3,6113.7,1619.3z"/>
	</g>
	<circle cx="6008.9" cy="1831.7" r="45.9"/>
	<circle cx="5855.2" cy="1678" r="45.9"/>
	<circle cx="6008.9" cy="2533.7" r="45.9"/>
	<circle cx="5855.2" cy="2380" r="45.9"/>
	<g>
		<path d="M6757.6,981.7c-0.4,12.8-5.1,23.8-14.3,32.9c-19.5,19.4-38.9,38.9-58.3,58.3c-31.6,31.6-63,63.2-94.7,94.7
			c-21.4,21.2-55.4,17.6-71.3-7.3c-11.5-17.9-9.2-41.1,5.9-56.6c13.5-13.8,27.3-27.4,40.9-41c37.7-37.7,75.3-75.5,113.1-113
			c20-19.9,51-18.5,68.4,2.9C6754.2,961,6757.4,970.8,6757.6,981.7z"/>
	</g>
	<circle cx="6711.3" cy="1135.6" r="45.9"/>
	<circle cx="6557.6" cy="981.9" r="45.9"/>
	<g>
		<circle cx="6557.6" cy="981.9" r="45.9"/>
		
			<rect x="6451.3" y="921.6" transform="matrix(-1.836970e-16 1 -1 -1.836970e-16 7479.1592 -5515.3096)" width="91.8" height="120.7"/>
	</g>
	<g>
		<circle cx="6711.3" cy="1135.6" r="45.9"/>
		
			<rect x="6725.7" y="1075.3" transform="matrix(6.123234e-17 -1 1 6.123234e-17 5635.9766 7907.2441)" width="91.8" height="120.7"/>
	</g>
	<g>
		<path d="M6058.2,981.7c-0.4,12.8-5.1,23.8-14.3,32.9c-19.5,19.4-38.9,38.9-58.3,58.3c-31.6,31.6-63,63.2-94.7,94.7
			c-21.4,21.2-55.4,17.6-71.3-7.3c-11.5-17.9-9.2-41.1,5.9-56.6c13.5-13.8,27.3-27.4,40.9-41c37.7-37.7,75.3-75.5,113.1-113
			c20-19.9,51-18.5,68.4,2.9C6054.8,961,6058.1,970.8,6058.2,981.7z"/>
	</g>
	<circle cx="6011.9" cy="1135.6" r="45.9"/>
	<circle cx="5858.2" cy="981.9" r="45.9"/>
	<g>
		<circle cx="5858.2" cy="981.9" r="45.9"/>
		
			<rect x="5828.8" y="844.7" transform="matrix(-1.836970e-16 1 -1 -1.836970e-16 6856.6646 -4892.8154)" width="91.8" height="274.4"/>
	</g>
	<g>
		<circle cx="6011.9" cy="1135.6" r="45.9"/>
		<rect x="5948" y="996.9" transform="matrix(6.123234e-17 -1 1 6.123234e-17 4858.2466 7129.5146)" width="91.8" height="277.4"/>
	</g>
	<g>
		<path d="M6757.6,2379.7c-0.4,12.8-5.1,23.8-14.3,32.9c-19.5,19.4-38.9,38.9-58.3,58.3c-31.6,31.6-63,63.2-94.7,94.7
			c-21.4,21.2-55.4,17.6-71.3-7.3c-11.5-17.9-9.2-41.1,5.9-56.6c13.5-13.8,27.3-27.4,40.9-41c37.7-37.7,75.3-75.5,113.1-113.1
			c20-19.9,51-18.5,68.4,2.9C6754.2,2359,6757.4,2368.8,6757.6,2379.7z"/>
	</g>
	<circle cx="6711.3" cy="2533.6" r="45.9"/>
	<circle cx="6557.6" cy="2379.9" r="45.9"/>
	<g>
		<ellipse transform="matrix(0.7071 -0.7071 0.7071 0.7071 237.8062 5333.9644)" cx="6557.6" cy="2379.9" rx="45.9" ry="45.9"/>
		<rect x="6469" y="2276.9" transform="matrix(-0.7071 0.7071 -0.7071 -0.7071 12774.334 -616.7772)" width="91.8" height="120.7"/>
	</g>
	<g>
		<ellipse transform="matrix(0.7071 -0.7071 0.7071 0.7071 174.1377 5487.6738)" cx="6711.3" cy="2533.6" rx="45.9" ry="45.9"/>
		<rect x="6708" y="2516" transform="matrix(0.7071 -0.7071 0.7071 0.7071 156.4665 5530.3359)" width="91.8" height="120.7"/>
	</g>
	<g>
		<path d="M7641.2,2123.6c-0.4,12.8-5.1,23.8-14.3,32.9c-19.5,19.4-38.9,38.9-58.3,58.3c-31.6,31.6-63,63.2-94.7,94.7
			c-21.4,21.2-55.4,17.6-71.3-7.3c-11.5-17.9-9.2-41.1,5.9-56.6c13.5-13.8,27.3-27.4,40.9-41c37.7-37.7,75.3-75.5,113.1-113.1
			c20-19.9,51-18.5,68.4,2.9C7637.8,2102.9,7641,2112.7,7641.2,2123.6z"/>
	</g>
	<circle cx="7594.9" cy="2277.6" r="45.9"/>
	<circle cx="7441.2" cy="2123.8" r="45.9"/>
	<g>
		<ellipse transform="matrix(0.7071 -0.7071 0.7071 0.7071 677.6788 5883.7593)" cx="7441.2" cy="2123.8" rx="45.9" ry="45.9"/>
		
			<rect x="7352.6" y="2020.9" transform="matrix(-0.7071 0.7071 -0.7071 -0.7071 14101.6562 -1678.7234)" width="91.8" height="120.7"/>
	</g>
	<g>
		<ellipse transform="matrix(0.7071 -0.7071 0.7071 0.7071 614.0103 6037.4688)" cx="7594.9" cy="2277.6" rx="45.9" ry="45.9"/>
		<rect x="7591.6" y="2259.9" transform="matrix(0.7071 -0.7071 0.7071 0.7071 596.3391 6080.1309)" width="91.8" height="120.7"/>
	</g>
	<g>
		<path d="M8243.8,977.2c-0.4,12.8-5.1,23.8-14.3,32.9c-19.5,19.4-38.9,38.9-58.3,58.3c-31.6,31.6-63,63.2-94.7,94.7
			c-21.4,21.2-55.4,17.6-71.3-7.3c-11.5-17.9-9.2-41.1,5.9-56.6c13.5-13.8,27.3-27.4,40.9-41c37.7-37.7,75.3-75.5,113.1-113
			c20-19.9,51-18.5,68.4,2.9C8240.4,956.4,8243.6,966.2,8243.8,977.2z"/>
	</g>
	<circle cx="8197.5" cy="1131.1" r="45.9"/>
	<circle cx="8043.8" cy="977.4" r="45.9"/>
	<g>
		<ellipse transform="matrix(0.7071 -0.7071 0.7071 0.7071 1664.8654 5974.0747)" cx="8043.8" cy="977.4" rx="45.9" ry="45.9"/>
		
			<rect x="7955.2" y="874.4" transform="matrix(-0.7071 0.7071 -0.7071 -0.7071 14319.6973 -4062.0024)" width="91.8" height="120.7"/>
	</g>
	<g>
		<ellipse transform="matrix(0.7071 -0.7071 0.7071 0.7071 1601.1968 6127.7842)" cx="8197.5" cy="1131.1" rx="45.9" ry="45.9"/>
		<rect x="8194.2" y="1113.4" transform="matrix(0.7071 -0.7071 0.7071 0.7071 1583.5256 6170.4463)" width="91.8" height="120.7"/>
	</g>
	<g>
		<path d="M6757.6,1693.7c-0.4,12.8-5.1,23.8-14.3,32.9c-19.5,19.4-38.9,38.9-58.3,58.3c-31.6,31.6-63,63.2-94.7,94.7
			c-21.4,21.2-55.4,17.6-71.3-7.3c-11.5-17.9-9.2-41.1,5.9-56.6c13.5-13.8,27.3-27.4,40.9-41c37.7-37.7,75.3-75.5,113.1-113
			c20-19.9,51-18.5,68.4,2.9C6754.2,1673,6757.4,1682.8,6757.6,1693.7z"/>
	</g>
	<circle cx="6711.3" cy="1847.6" r="45.9"/>
	<circle cx="6557.6" cy="1693.9" r="45.9"/>
	<g>
		<circle cx="6557.6" cy="1693.9" r="45.9"/>
		
			<rect x="6451.3" y="1633.6" transform="matrix(-1.836970e-16 1 -1 -1.836970e-16 8191.1592 -4803.3096)" width="91.8" height="120.7"/>
	</g>
	<g>
		<circle cx="6711.3" cy="1847.6" r="45.9"/>
		
			<rect x="6725.7" y="1787.3" transform="matrix(6.123234e-17 -1 1 6.123234e-17 4923.9766 8619.2441)" width="91.8" height="120.7"/>
	</g>
	<g>
		<path d="M7642.2,1137.4c-7.1,6.7-15.6,10.1-25.6,10c-21-0.1-42.1,0-63.1,0c-34.2,0-68.3,0.1-102.5,0
			c-23.1-0.1-39.5-20.5-34.6-42.5c3.5-15.9,17.3-27.2,33.8-27.4c14.8-0.2,29.6-0.1,44.4-0.1c40.8,0,81.6-0.1,122.4,0
			c21.6,0.1,37.6,17.6,35.4,38.6C7651.5,1124.3,7648,1131.3,7642.2,1137.4z"/>
	</g>
	<g>
		<path d="M7651.2,1114.1c-0.3,9.8-3.9,18.2-11,25.2c-14.9,14.8-29.8,29.7-44.6,44.6c-24.2,24.2-48.2,48.4-72.5,72.4
			c-16.4,16.2-42.4,13.5-54.6-5.6c-8.8-13.7-7-31.4,4.5-43.3c10.3-10.6,20.9-20.9,31.3-31.4c28.8-28.8,57.6-57.7,86.6-86.5
			c15.3-15.2,39-14.1,52.3,2.2C7648.6,1098.3,7651,1105.7,7651.2,1114.1z"/>
	</g>
	<g>
		<path d="M7318.6,877.8c-0.3,9.8-3.9,18.2-11,25.2c-14.9,14.8-29.8,29.7-44.6,44.6c-24.2,24.2-48.2,48.4-72.5,72.4
			c-16.4,16.2-42.4,13.5-54.6-5.6c-8.8-13.7-7-31.4,4.5-43.3c10.3-10.6,20.9-20.9,31.3-31.4c28.8-28.8,57.6-57.7,86.6-86.5
			c15.3-15.2,39-14.1,52.3,2.2C7316,862,7318.4,869.4,7318.6,877.8z"/>
	</g>
	<g>
		<path d="M7357.8,1019.5c-7.1,6.7-15.6,10.1-25.6,10c-21-0.1-42.1,0-63.1,0c-34.2,0-68.3,0.1-102.5,0
			c-23.1-0.1-39.5-20.5-34.6-42.5c3.5-15.9,17.3-27.2,33.8-27.4c14.8-0.2,29.6-0.1,44.4-0.1c40.8,0,81.6-0.1,122.4,0
			c21.6,0.1,37.6,17.6,35.4,38.6C7367.2,1006.5,7363.6,1013.5,7357.8,1019.5z"/>
	</g>
	<circle cx="5252.6" cy="1740.1" r="39.1"/>
	<g>
		<path d="M5290.2,1893.3c-0.3,10.9-4.4,20.3-12.2,28c-16.6,16.5-33.1,33.1-49.7,49.7c-26.9,26.9-53.7,53.9-80.7,80.7
			c-18.2,18.1-47.2,15-60.8-6.2c-9.8-15.3-7.8-35,5.1-48.2c11.5-11.8,23.2-23.3,34.9-35c32.1-32.1,64.2-64.3,96.4-96.3
			c17.1-17,43.4-15.7,58.3,2.5C5287.3,1875.6,5290.1,1884,5290.2,1893.3z"/>
	</g>
	<g>
		<path d="M5236.5,1608.8c-0.3,10.9-4.4,20.3-12.2,28c-16.6,16.5-33.1,33.1-49.7,49.7c-26.9,26.9-53.7,53.9-80.7,80.7
			c-18.2,18.1-47.2,15-60.8-6.2c-9.8-15.3-7.8-35,5.1-48.2c11.5-11.8,23.2-23.3,34.9-35c32.1-32.1,64.2-64.3,96.4-96.3
			c17.1-17,43.4-15.7,58.3,2.5C5233.6,1591.2,5236.3,1599.5,5236.5,1608.8z"/>
	</g>
	<g>
		<path d="M5280.2,1768.4c-8,7.5-17.4,11.2-28.5,11.2c-23.4-0.1-46.8,0-70.3,0c-38,0-76.1,0.1-114.1,0c-25.7-0.1-44-22.8-38.6-47.4
			c3.9-17.7,19.2-30.3,37.7-30.5c16.5-0.2,32.9-0.1,49.4-0.1c45.4,0,90.9-0.1,136.3,0c24.1,0.1,41.9,19.6,39.5,43
			C5290.6,1753.8,5286.7,1761.7,5280.2,1768.4z"/>
	</g>
	<path d="M5071,1930.4c65.5,0.6,50.4,36.5,28,59.6c-22.4,23.1,41.1,24.9,41.1,24.9l45.4-85.1l-44.5-31.7l-60.3,16.2L5071,1930.4z"/>
	<path d="M6092.3,3026.8c-48.6-50.3-83.9-45.8-128.4,0c-62.4,64.3-28.2-63.6-28.2-63.6l80.7-45.3l90.3,76l5,30.7L6092.3,3026.8z"/>
	<path d="M6010.4,3117.8"/>
	<path d="M5807.8,2926.9c48.6,50.3,83.9,45.8,128.4,0c62.4-64.3,28.2,63.6,28.2,63.6l-80.7,45.3l-90.3-76l-5-30.7L5807.8,2926.9z"/>
	<text transform="matrix(6.123234e-17 1 -1 6.123234e-17 8259.1738 1931.6033)" class="st5" style="font-size:86.401px;">OPEN NANOGRID</text>
	<text transform="matrix(6.123234e-17 1 -1 6.123234e-17 7145.0508 1889.5828)" class="st5" style="font-size:86.401px;">OPEN NANOGRID</text>
	<text transform="matrix(1 0 0 1 3570.9731 969.3536)"><tspan x="0" y="0" class="st5 st9">open source</tspan><tspan x="0" y="89.4" class="st5 st9">power</tspan><tspan x="0" y="178.8" class="st5 st9">electricity</tspan><tspan x="0" y="268.2" class="st5 st9">smart grid</tspan><tspan x="0" y="357.6" class="st5 st9">internet of things</tspan><tspan x="0" y="447.1" class="st5 st9">appliances</tspan><tspan x="0" y="536.5" class="st5 st9">electronics</tspan><tspan x="0" y="625.9" class="st5 st9">controller</tspan><tspan x="0" y="715.3" class="st5 st9">peer to peer</tspan><tspan x="0" y="804.7" class="st5 st9">renewable energies</tspan><tspan x="0" y="894.1" class="st5 st9">off grid</tspan><tspan x="0" y="983.5" class="st5 st9">independent</tspan><tspan x="0" y="1072.9" class="st5 st9">happy</tspan><tspan x="0" y="1162.3" class="st5 st9">resourceful</tspan><tspan x="0" y="1251.7" class="st5 st9">powerful</tspan><tspan x="0" y="1341.2" class="st5 st9">connected</tspan><tspan x="0" y="1430.6" class="st5 st9">future</tspan><tspan x="0" y="1520" class="st5 st9">sustainable</tspan><tspan x="0" y="1609.4" class="st5 st9">home</tspan><tspan x="0" y="1698.8" class="st5 st9">work</tspan></text>
</g>
<g id="Layer_4">
	<circle class="st10" cx="1097.6" cy="1779.8" r="45.9"/>
	<circle class="st10" cx="1067.6" cy="1933.5" r="45.9"/>
	<path class="st10" d="M1051.7,2043.6l-28.4-98.3l87.9-26c0,0,15.7,60,38.7,59.1s-6.3,45.7-6.3,45.7L1051.7,2043.6z"/>
	<path class="st10" d="M1113.2,1669.3l28.4,98.3l-87.9,26c0,0-15.7-60-38.7-59.1s6.3-45.7,6.3-45.7L1113.2,1669.3z"/>
	<path d="M1040.5,2005c9.5,32.8,38.6,41.4,77.2,38.7c26.2-1.8,5.8,25.2,5.8,25.2l-97.2-7.8l-3.1-41.3L1040.5,2005L1040.5,2005"/>
	<path d="M959.8,1899c0,24-32.2,74.5-62.2,11.3s16.1,81.5,16.1,81.5l67.2,43V1901C981,1901,959.8,1875,959.8,1899z"/>
	<path d="M1205.9,1815.7c0-24,32.1-74.5,62.1-11.3s-15.9-81.5-15.9-81.5l-67.1-43v133.8C1185,1813.7,1205.9,1839.7,1205.9,1815.7z"
		/>
	<path d="M1126.8,1706.8c-9.5-32.8-38.6-41.4-77.2-38.7c-26.2,1.8-5.8-25.2-5.8-25.2l97.2,7.8l3.1,41.3L1126.8,1706.8L1126.8,1706.8
		"/>
	<g>
		<path d="M1943,2511.5c7.5,8,11.2,17.4,11.2,28.5c-0.1,23.4,0,46.8,0,70.3c0,38,0.1,76.1,0,114.1c-0.1,25.7-22.8,44-47.4,38.6
			c-17.7-3.9-30.3-19.2-30.5-37.7c-0.2-16.5-0.1-32.9-0.1-49.4c0-45.4-0.1-90.9,0-136.3c0.1-24.1,19.6-41.9,43-39.5
			C1928.5,2501.1,1936.3,2505,1943,2511.5z"/>
	</g>
	<g>
		<path d="M1183.4,2530c10.8,0.3,20,4.3,27.7,12.1c16.3,16.4,32.7,32.7,49,49c26.5,26.5,53.2,53,79.6,79.6
			c17.8,18,14.8,46.6-6.1,59.9c-15.1,9.6-34.5,7.7-47.5-5c-11.6-11.3-23-22.9-34.5-34.4c-31.7-31.7-63.4-63.3-95-95.1
			c-16.7-16.8-15.5-42.8,2.4-57.5C1165.9,2532.8,1174.2,2530.1,1183.4,2530z"/>
	</g>
	<path d="M1219.9,2746.2c0.5-64.6,36-49.7,58.8-27.6c22.8,22.1,24.5-40.5,24.5-40.5l-83.9-44.8l-31.2,43.9l16,59.5L1219.9,2746.2z"
		/>
	<g>
		<path d="M1208.9,2539.9c7.4,7.8,11.1,17.2,11,28.1c-0.1,23.1,0,46.2,0,69.3c0,37.5,0.1,75.1,0,112.6c-0.1,25.3-22.5,43.4-46.7,38
			c-17.5-3.9-29.9-19-30.1-37.1c-0.2-16.2-0.1-32.5-0.1-48.7c0-44.8-0.1-89.6,0-134.4c0.1-23.7,19.3-41.3,42.4-38.9
			C1194.5,2529.6,1202.3,2533.5,1208.9,2539.9z"/>
	</g>
	<g>
		<path d="M1029.8,2787.7c-10.8-0.3-20-4.3-27.7-12.1c-16.3-16.4-32.7-32.7-49-49c-26.5-26.5-53.2-53-79.6-79.6
			c-17.8-18-14.8-46.6,6.1-59.9c15.1-9.6,34.5-7.7,47.5,5c11.6,11.3,23,22.9,34.5,34.4c31.7,31.7,63.4,63.3,95,95.1
			c16.7,16.8,15.5,42.8-2.4,57.5C1047.2,2784.8,1039,2787.6,1029.8,2787.7z"/>
	</g>
	<path d="M993.2,2571.5c-0.5,64.6-36,49.7-58.8,27.6c-22.8-22.1-24.5,40.5-24.5,40.5l83.9,44.8l31.2-43.9l-16-59.5L993.2,2571.5z"/>
	<g>
		<path d="M1004.3,2777.8c-7.4-7.8-11.1-17.2-11-28.1c0.1-23.1,0-46.2,0-69.3c0-37.5-0.1-75.1,0-112.6c0.1-25.3,22.5-43.4,46.7-38
			c17.5,3.9,29.9,19,30.1,37.1c0.2,16.2,0.1,32.5,0.1,48.7c0,44.8,0.1,89.6,0,134.4c-0.1,23.7-19.3,41.3-42.4,38.9
			C1018.6,2788.1,1010.9,2784.2,1004.3,2777.8z"/>
	</g>
	<g>
		<path d="M462.6,2575.4c7,0.2,13,2.8,17.9,7.8c10.6,10.6,21.2,21.2,31.8,31.8c17.2,17.2,34.5,34.4,51.6,51.7
			c11.6,11.7,9.6,30.2-4,38.9c-9.8,6.2-22.4,5-30.8-3.2c-7.5-7.4-14.9-14.9-22.4-22.3c-20.6-20.5-41.1-41.1-61.6-61.7
			c-10.9-10.9-10.1-27.8,1.6-37.3C451.3,2577.3,456.6,2575.5,462.6,2575.4z"/>
	</g>
	<path d="M486.3,2715.6c0.4-41.9,23.4-32.2,38.1-17.9c14.8,14.3,15.9-26.3,15.9-26.3l-54.4-29l-20.2,28.5l10.4,38.6L486.3,2715.6z"
		/>
	<g>
		<path d="M479.2,2581.8c4.8,5.1,7.2,11.1,7.2,18.2c0,15,0,30,0,45c0,24.3,0.1,48.7,0,73c-0.1,16.4-14.6,28.1-30.3,24.7
			c-11.3-2.5-19.4-12.3-19.5-24.1c-0.1-10.5,0-21.1,0-31.6c0-29.1-0.1-58.1,0-87.2c0-15.4,12.5-26.8,27.5-25.3
			C469.8,2575.1,474.9,2577.7,479.2,2581.8z"/>
	</g>
	<g>
		<path d="M363,2742.6c-7-0.2-13-2.8-17.9-7.8c-10.6-10.6-21.2-21.2-31.8-31.8c-17.2-17.2-34.5-34.4-51.6-51.7
			c-11.6-11.7-9.6-30.2,4-38.9c9.8-6.2,22.4-5,30.8,3.2c7.5,7.4,14.9,14.9,22.4,22.3c20.6,20.5,41.1,41.1,61.6,61.7
			c10.9,10.9,10.1,27.8-1.6,37.3C374.3,2740.7,369,2742.5,363,2742.6z"/>
	</g>
	<path d="M339.3,2602.3c-0.4,41.9-23.4,32.2-38.1,17.9c-14.8-14.3-15.9,26.3-15.9,26.3l54.4,29l20.2-28.5l-10.4-38.6L339.3,2602.3z"
		/>
	<g>
		<path d="M346.5,2736.1c-4.8-5.1-7.2-11.1-7.2-18.2c0-15,0-30,0-45c0-24.3-0.1-48.7,0-73c0.1-16.4,14.6-28.1,30.3-24.7
			c11.3,2.5,19.4,12.3,19.5,24.1c0.1,10.5,0,21.1,0,31.6c0,29.1,0.1,58.1,0,87.2c0,15.4-12.5,26.8-27.5,25.3
			C355.8,2742.8,350.8,2740.3,346.5,2736.1z"/>
	</g>
	<circle class="st4" cx="6011.9" cy="1073.8" r="45.9"/>
	<circle class="st4" cx="5858.2" cy="1043.8" r="45.9"/>
	<path class="st4" d="M5748.1,1027.8l98.3-28.4l26,87.9c0,0-60,15.7-59.1,38.7c0.9,23-45.7-6.3-45.7-6.3L5748.1,1027.8z"/>
	<path class="st4" d="M6122.4,1089.3l-98.3,28.4l-26-87.9c0,0,60-15.7,59.1-38.7c-0.9-23,45.7,6.3,45.7,6.3L6122.4,1089.3z"/>
	<path d="M5786.7,1016.7c-32.8,9.5-41.4,38.6-38.7,77.2c1.8,26.2-25.2,5.8-25.2,5.8l7.8-97.2l41.3-3.1L5786.7,1016.7L5786.7,1016.7"
		/>
	<path d="M5892.7,935.9c-24,0-74.5-32.1-11.3-62.1s-81.5,16-81.5,16l-43,67.2h133.8C5890.7,957,5916.7,935.9,5892.7,935.9z"/>
	<path d="M5976,1182c24,0,74.5,32.1,11.3,62.1s81.5-16,81.5-16l43-67.1H5978C5978,1161,5952,1182,5976,1182z"/>
	<path d="M6084.9,1102.9c32.8-9.5,41.4-38.6,38.7-77.2c-1.8-26.2,25.2-5.8,25.2-5.8l-7.8,97.2l-41.3,3.1L6084.9,1102.9
		L6084.9,1102.9"/>
	<g>
		<path d="M5280.2,1919.2c-8,7.5-17.4,11.2-28.5,11.2c-23.4-0.1-46.8,0-70.3,0c-38,0-76.1,0.1-114.1,0c-25.7-0.1-44-22.8-38.6-47.4
			c3.9-17.7,19.2-30.3,37.7-30.5c16.5-0.2,32.9-0.1,49.4-0.1c45.4,0,90.9-0.1,136.3,0c24.1,0.1,41.9,19.6,39.5,43
			C5290.6,1904.6,5286.7,1912.5,5280.2,1919.2z"/>
	</g>
	<g>
		<path d="M5261.7,1159.5c-0.3,10.8-4.3,20-12.1,27.7c-16.4,16.3-32.7,32.7-49,49c-26.5,26.5-53,53.2-79.6,79.6
			c-18,17.8-46.6,14.8-59.9-6.1c-9.6-15.1-7.7-34.5,5-47.5c11.3-11.6,22.9-23,34.4-34.5c31.7-31.7,63.3-63.4,95.1-95
			c16.8-16.7,42.8-15.5,57.5,2.4C5258.9,1142.1,5261.6,1150.3,5261.7,1159.5z"/>
	</g>
	<path d="M5045.5,1196.1c64.6,0.5,49.7,36,27.6,58.8c-22.1,22.8,40.5,24.5,40.5,24.5l44.8-83.9l-43.9-31.2l-59.5,16L5045.5,1196.1z"
		/>
	<g>
		<path d="M5251.8,1185c-7.8,7.4-17.2,11.1-28.1,11c-23.1-0.1-46.2,0-69.3,0c-37.5,0-75.1,0.1-112.6,0c-25.3-0.1-43.4-22.5-38-46.7
			c3.9-17.5,19-29.9,37.1-30.1c16.2-0.2,32.5-0.1,48.7-0.1c44.8,0,89.6-0.1,134.4,0c23.7,0.1,41.3,19.3,38.9,42.4
			C5262.1,1170.7,5258.2,1178.4,5251.8,1185z"/>
	</g>
	<g>
		<path d="M5004,1005.9c0.3-10.8,4.3-20,12.1-27.7c16.4-16.3,32.7-32.7,49-49c26.5-26.5,53-53.2,79.6-79.6
			c18-17.8,46.6-14.8,59.9,6.1c9.6,15.1,7.7,34.5-5,47.5c-11.3,11.6-22.9,23-34.4,34.5c-31.7,31.7-63.3,63.4-95.1,95
			c-16.8,16.7-42.8,15.5-57.5-2.4C5006.8,1023.4,5004.1,1015.2,5004,1005.9z"/>
	</g>
	<path d="M5220.2,969.4c-64.6-0.5-49.7-36-27.6-58.8c22.1-22.8-40.5-24.5-40.5-24.5l-44.8,83.9l43.9,31.2l59.5-16L5220.2,969.4z"/>
	<g>
		<path d="M5013.9,980.4c7.8-7.4,17.2-11.1,28.1-11c23.1,0.1,46.2,0,69.3,0c37.5,0,75.1-0.1,112.6,0c25.3,0.1,43.4,22.5,38,46.7
			c-3.9,17.5-19,29.9-37.1,30.1c-16.2,0.2-32.5,0.1-48.7,0.1c-44.8,0-89.6,0.1-134.4,0c-23.7-0.1-41.3-19.3-38.9-42.4
			C5003.6,994.8,5007.5,987,5013.9,980.4z"/>
	</g>
	<g>
		<path d="M5216.3,438.8c-0.2,7-2.8,13-7.8,17.9c-10.6,10.6-21.2,21.2-31.8,31.8c-17.2,17.2-34.4,34.5-51.7,51.6
			c-11.7,11.6-30.2,9.6-38.9-4c-6.2-9.8-5-22.4,3.2-30.8c7.4-7.5,14.9-14.9,22.3-22.4c20.5-20.6,41.1-41.1,61.7-61.6
			c10.9-10.9,27.8-10.1,37.3,1.6C5214.4,427.5,5216.2,432.8,5216.3,438.8z"/>
	</g>
	<path d="M5076.1,462.5c41.9,0.4,32.2,23.4,17.9,38.1c-14.3,14.8,26.3,15.9,26.3,15.9l29-54.4l-28.5-20.2l-38.6,10.4L5076.1,462.5z"
		/>
	<g>
		<path d="M5209.9,455.3c-5.1,4.8-11.1,7.2-18.2,7.2c-15,0-30,0-45,0c-24.3,0-48.7,0.1-73,0c-16.4-0.1-28.1-14.6-24.7-30.3
			c2.5-11.3,12.3-19.4,24.1-19.5c10.5-0.1,21.1,0,31.6,0c29.1,0,58.1-0.1,87.2,0c15.4,0,26.8,12.5,25.3,27.5
			C5216.5,446,5214,451,5209.9,455.3z"/>
	</g>
	<g>
		<path d="M5049.1,339.2c0.2-7,2.8-13,7.8-17.9c10.6-10.6,21.2-21.2,31.8-31.8c17.2-17.2,34.4-34.5,51.7-51.6
			c11.7-11.6,30.2-9.6,38.9,4c6.2,9.8,5,22.4-3.2,30.8c-7.4,7.5-14.9,14.9-22.3,22.4c-20.5,20.6-41.1,41.1-61.7,61.6
			c-10.9,10.9-27.8,10.1-37.3-1.6C5051,350.5,5049.2,345.1,5049.1,339.2z"/>
	</g>
	<path d="M5189.4,315.4c-41.9-0.4-32.2-23.4-17.9-38.1c14.3-14.8-26.3-15.9-26.3-15.9l-29,54.4l28.5,20.2l38.6-10.4L5189.4,315.4z"
		/>
	<g>
		<path d="M5055.6,322.6c5.1-4.8,11.1-7.2,18.2-7.2c15,0,30,0,45,0c24.3,0,48.7-0.1,73,0c16.4,0.1,28.1,14.6,24.7,30.3
			c-2.5,11.3-12.3,19.4-24.1,19.5c-10.5,0.1-21.1,0-31.6,0c-29.1,0-58.1,0.1-87.2,0c-15.4,0-26.8-12.5-25.3-27.5
			C5048.9,331.9,5051.4,326.9,5055.6,322.6z"/>
	</g>
</g>
</svg>
